<?xml version="1.0" standalone="no"?>
<!DOCTYPE svg PUBLIC "-//W3C//DTD SVG 20010904//EN"
 "http://www.w3.org/TR/2001/REC-SVG-20010904/DTD/svg10.dtd">
<svg version="1.0" xmlns="http://www.w3.org/2000/svg"
 width="320.000000pt" height="320.000000pt" viewBox="0 0 320.000000 320.000000"
 preserveAspectRatio="xMidYMid meet">
<g><rect x="0" y="0" width="320" height="320" fill="#ffffff" />
<g transform="translate(0.000000,320.000000) scale(0.050000,-0.050000)"
fill="#000000" stroke="none">
<Flag content="import base64"/>
<path d="M560 5280 l0 -560 560 0 560 0 0 560 0 560 -560 0 -560 0 0 -560z
m960 0 l0 -400 -400 0 -400 0 0 400 0 400 400 0 400 0 0 -400z"/>
<path d="M880 5280 l0 -240 240 0 240 0 0 240 0 240 -240 0 -240 0 0 -240z"/>
<path d="M2160 5760 l0 -80 -160 0 -160 0 0 -160 0 -160 80 0 80 0 0 -80 0
-80 -80 0 -80 0 0 -320 0 -320 -160 0 -160 0 0 -80 0 -80 80 0 80 0 0 -80 0
-80 -160 0 -160 0 0 -160 0 -160 -80 0 -80 0 0 80 0 80 -80 0 -80 0 0 -80 0
-80 80 0 80 0 0 -240 0 -240 -80 0 -80 0 0 80 0 80 -160 0 -160 0 0 -240 0
-240 -80 0 -80 0 0 -80 0 -80 240 0 240 0 0 80 0 80 160 0 160 0 0 -240 0
-240 -80 0 -80 0 0 80 0 80 -320 0 -320 0 0 -80 0 -80 160 0 160 0 0 -80 0
-80 -80 0 -80 0 0 -80 0 -80 -80 0 -80 0 0 -80 0 -80 80 0 80 0 0 -80 0 -80
-80 0 -80 0 0 -80 0 -80 80 0 80 0 0 80 0 80 80 0 80 0 0 -80 0 -80 80 0 80 0
0 80 0 80 80 0 80 0 0 160 0 160 80 0 80 0 0 -160 0 -160 80 0 80 0 0 -80 0
-80 160 0 160 0 0 -160 0 -160 80 0 80 0 0 -160 0 -160 -80 0 -80 0 0 -80 0
-80 80 0 80 0 0 -80 0 -80 -80 0 -80 0 0 -160 0 -160 400 0 400 0 0 80 0 80
80 0 80 0 0 -80 0 -80 80 0 80 0 0 80 0 80 -80 0 -80 0 0 160 0 160 -80 0 -80
0 0 -160 0 -160 -80 0 -80 0 0 80 0 80 -80 0 -80 0 0 80 0 80 -80 0 -80 0 0
80 0 80 160 0 160 0 0 80 0 80 80 0 80 0 0 -80 0 -80 160 0 160 0 0 80 0 80
80 0 80 0 0 -160 0 -160 80 0 80 0 0 -160 0 -160 -80 0 -80 0 0 -80 0 -80 80
0 80 0 0 80 0 80 80 0 80 0 0 320 0 320 160 0 160 0 0 -80 0 -80 240 0 240 0
0 160 0 160 -160 0 -160 0 0 80 0 80 240 0 240 0 0 -320 0 -320 -80 0 -80 0 0
-80 0 -80 -80 0 -80 0 0 80 0 80 -80 0 -80 0 0 -160 0 -160 -80 0 -80 0 0 80
0 80 -80 0 -80 0 0 -80 0 -80 80 0 80 0 0 -80 0 -80 160 0 160 0 0 80 0 80 80
0 80 0 0 -80 0 -80 240 0 240 0 0 80 0 80 -80 0 -80 0 0 80 0 80 -80 0 -80 0
0 80 0 80 80 0 80 0 0 80 0 80 80 0 80 0 0 -80 0 -80 80 0 80 0 0 -240 0 -240
80 0 80 0 0 160 0 160 80 0 80 0 0 -160 0 -160 80 0 80 0 0 160 0 160 80 0 80
0 0 80 0 80 -160 0 -160 0 0 240 0 240 80 0 80 0 0 80 0 80 80 0 80 0 0 -240
0 -240 80 0 80 0 0 240 0 240 80 0 80 0 0 80 0 80 -80 0 -80 0 0 -80 0 -80
-80 0 -80 0 0 80 0 80 -160 0 -160 0 0 80 0 80 80 0 80 0 0 160 0 160 80 0 80
0 0 80 0 80 80 0 80 0 0 -160 0 -160 -80 0 -80 0 0 -80 0 -80 160 0 160 0 0
240 0 240 -80 0 -80 0 0 80 0 80 -80 0 -80 0 0 -80 0 -80 -80 0 -80 0 0 240 0
240 80 0 80 0 0 -80 0 -80 160 0 160 0 0 80 0 80 -160 0 -160 0 0 80 0 80
-160 0 -160 0 0 80 0 80 80 0 80 0 0 160 0 160 80 0 80 0 0 -160 0 -160 80 0
80 0 0 -80 0 -80 80 0 80 0 0 80 0 80 -80 0 -80 0 0 160 0 160 80 0 80 0 0
400 0 400 -80 0 -80 0 0 80 0 80 -160 0 -160 0 0 -80 0 -80 -80 0 -80 0 0 80
0 80 -240 0 -240 0 0 -160 0 -160 -80 0 -80 0 0 80 0 80 -80 0 -80 0 0 80 0
80 80 0 80 0 0 240 0 240 -80 0 -80 0 0 80 0 80 -80 0 -80 0 0 80 0 80 160 0
160 0 0 160 0 160 -80 0 -80 0 0 80 0 80 -240 0 -240 0 0 -80 0 -80 -80 0 -80
0 0 80 0 80 -80 0 -80 0 0 -80 0 -80 80 0 80 0 0 -80 0 -80 80 0 80 0 0 80 0
80 80 0 80 0 0 -80 0 -80 80 0 80 0 0 -80 0 -80 -80 0 -80 0 0 -80 0 -80 -80
0 -80 0 0 -160 0 -160 -80 0 -80 0 0 80 0 80 -80 0 -80 0 0 80 0 80 80 0 80 0
0 80 0 80 -80 0 -80 0 0 80 0 80 -160 0 -160 0 0 80 0 80 -80 0 -80 0 0 -80 0
-80 -160 0 -160 0 0 -80 0 -80 -160 0 -160 0 0 -320 0 -320 -80 0 -80 0 0 240
0 240 -80 0 -80 0 0 80 0 80 -80 0 -80 0 0 80 0 80 160 0 160 0 0 160 0 160
-80 0 -80 0 0 -80z m1120 -320 l0 -80 80 0 80 0 0 -80 0 -80 -80 0 -80 0 0
-80 0 -80 -160 0 -160 0 0 -80 0 -80 80 0 80 0 0 -80 0 -80 -80 0 -80 0 0 -80
0 -80 80 0 80 0 0 -80 0 -80 -80 0 -80 0 0 -80 0 -80 -80 0 -80 0 0 80 0 80
-80 0 -80 0 0 80 0 80 -80 0 -80 0 0 80 0 80 80 0 80 0 0 240 0 240 80 0 80 0
0 80 0 80 160 0 160 0 0 80 0 80 80 0 80 0 0 -80z m960 -320 l0 -80 80 0 80 0
0 -240 0 -240 -160 0 -160 0 0 80 0 80 -80 0 -80 0 0 80 0 80 80 0 80 0 0 160
0 160 80 0 80 0 0 -80z m-2080 -320 l0 -240 80 0 80 0 0 -240 0 -240 -160 0
-160 0 0 80 0 80 -80 0 -80 0 0 160 0 160 80 0 80 0 0 240 0 240 80 0 80 0 0
-240z m1440 160 l0 -80 80 0 80 0 0 -160 0 -160 80 0 80 0 0 -80 0 -80 240 0
240 0 0 -80 0 -80 80 0 80 0 0 -80 0 -80 -160 0 -160 0 0 80 0 80 -160 0 -160
0 0 -160 0 -160 160 0 160 0 0 -80 0 -80 240 0 240 0 0 -80 0 -80 80 0 80 0 0
160 0 160 160 0 160 0 0 80 0 80 -80 0 -80 0 0 80 0 80 -80 0 -80 0 0 80 0 80
160 0 160 0 0 -160 0 -160 80 0 80 0 0 160 0 160 160 0 160 0 0 -160 0 -160
-80 0 -80 0 0 -80 0 -80 80 0 80 0 0 -80 0 -80 -160 0 -160 0 0 80 0 80 -80 0
-80 0 0 -80 0 -80 -80 0 -80 0 0 -80 0 -80 80 0 80 0 0 -80 0 -80 -80 0 -80 0
0 80 0 80 -80 0 -80 0 0 -160 0 -160 80 0 80 0 0 -80 0 -80 80 0 80 0 0 -80 0
-80 -240 0 -240 0 0 80 0 80 -80 0 -80 0 0 160 0 160 -80 0 -80 0 0 -160 0
-160 -80 0 -80 0 0 160 0 160 -160 0 -160 0 0 80 0 80 160 0 160 0 0 80 0 80
-240 0 -240 0 0 -160 0 -160 -80 0 -80 0 0 -160 0 -160 240 0 240 0 0 -160 0
-160 -80 0 -80 0 0 80 0 80 -80 0 -80 0 0 -160 0 -160 80 0 80 0 0 -80 0 -80
-80 0 -80 0 0 -80 0 -80 -80 0 -80 0 0 -80 0 -80 80 0 80 0 0 -160 0 -160 -80
0 -80 0 0 -80 0 -80 80 0 80 0 0 -80 0 -80 80 0 80 0 0 -80 0 -80 -80 0 -80 0
0 80 0 80 -80 0 -80 0 0 80 0 80 -80 0 -80 0 0 160 0 160 -160 0 -160 0 0 -80
0 -80 80 0 80 0 0 -160 0 -160 -320 0 -320 0 0 240 0 240 -80 0 -80 0 0 -80 0
-80 -80 0 -80 0 0 -80 0 -80 80 0 80 0 0 -160 0 -160 -160 0 -160 0 0 80 0 80
80 0 80 0 0 80 0 80 -80 0 -80 0 0 80 0 80 -80 0 -80 0 0 80 0 80 80 0 80 0 0
320 0 320 -80 0 -80 0 0 80 0 80 240 0 240 0 0 -80 0 -80 80 0 80 0 0 160 0
160 80 0 80 0 0 -160 0 -160 80 0 80 0 0 240 0 240 -80 0 -80 0 0 80 0 80
-160 0 -160 0 0 -160 0 -160 -160 0 -160 0 0 160 0 160 -80 0 -80 0 0 80 0 80
80 0 80 0 0 160 0 160 -80 0 -80 0 0 80 0 80 80 0 80 0 0 -80 0 -80 80 0 80 0
0 -160 0 -160 -80 0 -80 0 0 -80 0 -80 160 0 160 0 0 320 0 320 160 0 160 0 0
80 0 80 160 0 160 0 0 80 0 80 240 0 240 0 0 -80 0 -80 80 0 80 0 0 80 0 80
80 0 80 0 0 80 0 80 -80 0 -80 0 0 80 0 80 -80 0 -80 0 0 -80 0 -80 -160 0
-160 0 0 80 0 80 160 0 160 0 0 160 0 160 -80 0 -80 0 0 -80 0 -80 -80 0 -80
0 0 80 0 80 80 0 80 0 0 80 0 80 80 0 80 0 0 -80z m-1760 -1200 l0 -320 -80 0
-80 0 0 -80 0 -80 80 0 80 0 0 -80 0 -80 80 0 80 0 0 -80 0 -80 -80 0 -80 0 0
-160 0 -160 -160 0 -160 0 0 80 0 80 80 0 80 0 0 80 0 80 -80 0 -80 0 0 80 0
80 80 0 80 0 0 80 0 80 -80 0 -80 0 0 80 0 80 -80 0 -80 0 0 -80 0 -80 -80 0
-80 0 0 80 0 80 80 0 80 0 0 160 0 160 160 0 160 0 0 80 0 80 -80 0 -80 0 0
80 0 80 160 0 160 0 0 -320z m-800 -400 l0 -80 -80 0 -80 0 0 80 0 80 80 0 80
0 0 -80z m3360 -480 l0 -80 240 0 240 0 0 -80 0 -80 80 0 80 0 0 80 0 80 80 0
80 0 0 -160 0 -160 80 0 80 0 0 -80 0 -80 -240 0 -240 0 0 -80 0 -80 160 0
160 0 0 -80 0 -80 -160 0 -160 0 0 80 0 80 -80 0 -80 0 0 -80 0 -80 -80 0 -80
0 0 80 0 80 -160 0 -160 0 0 -160 0 -160 -80 0 -80 0 0 160 0 160 -80 0 -80 0
0 80 0 80 80 0 80 0 0 -80 0 -80 80 0 80 0 0 160 0 160 -80 0 -80 0 0 80 0 80
80 0 80 0 0 160 0 160 80 0 80 0 0 -80z m-3200 -480 l0 -80 -80 0 -80 0 0 -80
0 -80 -80 0 -80 0 0 80 0 80 80 0 80 0 0 80 0 80 80 0 80 0 0 -80z m640 0 l0
-80 80 0 80 0 0 -80 0 -80 -80 0 -80 0 0 -80 0 -80 -160 0 -160 0 0 80 0 80
160 0 160 0 0 80 0 80 -240 0 -240 0 0 80 0 80 240 0 240 0 0 -80z m3200 -800
l0 -240 -240 0 -240 0 0 240 0 240 240 0 240 0 0 -240z m0 -480 l0 -80 -80 0
-80 0 0 80 0 80 80 0 80 0 0 -80z m-2720 -320 l0 -80 -160 0 -160 0 0 80 0 80
160 0 160 0 0 -80z"/>
<Flag content="parts = ["/>
<path d="M3120 5280 l0 -80 80 0 80 0 0 80 0 80 -80 0 -80 0 0 -80z"/>
<path d="M2800 4800 l0 -80 -80 0 -80 0 0 -80 0 -80 80 0 80 0 0 -80 0 -80 80
0 80 0 0 80 0 80 -80 0 -80 0 0 80 0 80 80 0 80 0 0 80 0 80 -80 0 -80 0 0
-80z"/>
<Flag content="[70, 76, 65, 71],"/>
<path d="M4080 4800 l0 -80 80 0 80 0 0 80 0 80 -80 0 -80 0 0 -80z"/>
<path d="M2000 4320 l0 -80 80 0 80 0 0 80 0 80 -80 0 -80 0 0 -80z"/>
<Flag content="[123, 53, 86, 71],"/>
<path d="M3120 4000 l0 -80 -160 0 -160 0 0 -80 0 -80 -80 0 -80 0 0 -160 0
-160 160 0 160 0 0 -80 0 -80 240 0 240 0 0 80 0 80 80 0 80 0 0 160 0 160 80
0 80 0 0 80 0 80 -80 0 -80 0 0 80 0 80 -80 0 -80 0 0 -80 0 -80 -80 0 -80 0
0 80 0 80 -80 0 -80 0 0 -80z m480 -160 l0 -80 -80 0 -80 0 0 80 0 80 80 0 80
0 0 -80z m-320 -320 l0 -80 -160 0 -160 0 0 80 0 80 160 0 160 0 0 -80z"/>
<path d="M4240 3520 l0 -80 80 0 80 0 0 80 0 80 -80 0 -80 0 0 -80z"/>
<path d="M4560 3520 l0 -80 80 0 80 0 0 80 0 80 -80 0 -80 0 0 -80z"/>
<Flag content="[95, 52, 110, 100],"/>
<path d="M4720 3200 l0 -80 80 0 80 0 0 80 0 80 -80 0 -80 0 0 -80z"/>
<path d="M3120 3040 l0 -80 80 0 80 0 0 -160 0 -160 -80 0 -80 0 0 -240 0
-240 -160 0 -160 0 0 -80 0 -80 160 0 160 0 0 80 0 80 80 0 80 0 0 160 0 160
80 0 80 0 0 80 0 80 80 0 80 0 0 -80 0 -80 80 0 80 0 0 80 0 80 -80 0 -80 0 0
80 0 80 -80 0 -80 0 0 80 0 80 80 0 80 0 0 80 0 80 -240 0 -240 0 0 -80z"/>
<path d="M2320 2400 l0 -80 80 0 80 0 0 80 0 80 -80 0 -80 0 0 -80z"/>
<path d="M2800 2400 l0 -80 80 0 80 0 0 80 0 80 -80 0 -80 0 0 -80z"/>
<Flag content="[95, 88, 77, 49],"/>
<path d="M1520 3520 l0 -80 80 0 80 0 0 80 0 80 -80 0 -80 0 0 -80z"/>
<path d="M1680 3040 l0 -80 80 0 80 0 0 80 0 80 -80 0 -80 0 0 -80z"/>
<Flag content="[95, 52, 114, 51],"/>
<path d="M4240 2560 l0 -80 80 0 80 0 0 -80 0 -80 80 0 80 0 0 -80 0 -80 80 0
80 0 0 80 0 80 80 0 80 0 0 80 0 80 -80 0 -80 0 0 80 0 80 -80 0 -80 0 0 -80
0 -80 -80 0 -80 0 0 80 0 80 -80 0 -80 0 0 -80z"/>
<path d="M4720 1600 l0 -80 80 0 80 0 0 80 0 80 -80 0 -80 0 0 -80z"/>
<path d="M2800 5760 l0 -80 80 0 80 0 0 80 0 80 -80 0 -80 0 0 -80z"/>
<path d="M4720 5280 l0 -560 560 0 560 0 0 560 0 560 -560 0 -560 0 0 -560z
m960 0 l0 -400 -400 0 -400 0 0 400 0 400 400 0 400 0 0 -400z"/>
<Flag content="[95, 102, 52, 109],"/>

<path d="M5040 5280 l0 -240 240 0 240 0 0 240 0 240 -240 0 -240 0 0 -240z"/>
<path d="M560 4480 l0 -80 80 0 80 0 0 -240 0 -240 80 0 80 0 0 160 0 160 80
0 80 0 0 80 0 80 80 0 80 0 0 80 0 80 -80 0 -80 0 0 -80 0 -80 -80 0 -80 0 0
80 0 80 -160 0 -160 0 0 -80z"/>
<Flag content="[49, 108, 121, 125]"/>
<path d="M560 1120 l0 -560 560 0 560 0 0 560 0 560 -560 0 -560 0 0 -560z
m960 0 l0 -400 -400 0 -400 0 0 400 0 400 400 0 400 0 0 -400z"/>
<path d="M880 1120 l0 -240 240 0 240 0 0 240 0 240 -240 0 -240 0 0 -240z"/>
<Flag content="]"/>
<path d="M5680 960 l0 -80 80 0 80 0 0 80 0 80 -80 0 -80 0 0 -80z"/>
<path d="M5520 640 l0 -80 80 0 80 0 0 80 0 80 -80 0 -80 0 0 -80z"/>
<Flag content="flag = ''.join(chr(x) for part in parts for x in part)"/>
</g>
<Flag content="encoded_flag = base64.b64encode(flag.encode()).decode()"/>
<Flag content="print(''.join(base64.b64decode(encoded_flag).decode()))"/>
</g></svg>






